<svg width="100%" height="100%" viewBox="0 0 2545 2565" version="1.1" xmlns="http://www.w3.org/2000/svg" xmlns:xlink="http://www.w3.org/1999/xlink" xml:space="preserve" xmlns:serif="http://www.serif.com/" style="fill-rule:evenodd;clip-rule:evenodd;stroke-linejoin:round;stroke-miterlimit:2;">
    <path d="M0,0L2544.53,720.39L644.753,2563.68L0,0Z" style="fill:white;"/>
    <path d="M0,0L2544.53,720.39L644.753,2563.68L0,0ZM40.588,41.804L660.713,2507.56L2487.92,734.677L40.588,41.804Z"/>
    <path d="M1123.01,2100.28L483.646,1919.61L479.004,1901.17L931.093,1461.71L325.305,1290.53L321.013,1273.48L772.893,834.223L167.386,663.124L163.152,646.302L640.728,182.068L656.13,186.398L809.84,798.308L809.924,798.227L810.573,800.81L1266.2,357.909L1281.92,362.329L1436.14,976.231L1891.41,533.675L1903.08,536.956L2066.03,1185.64L2053.51,1197.78L1444.62,1025.73L1598.66,1638.95L1588.05,1649.24L979.537,1477.29L1133.48,2090.12L1123.01,2100.28ZM960.346,1455.33C960.211,1455.29 960.077,1455.26 959.942,1455.22C959.794,1455.17 959.646,1455.13 959.498,1455.09C959.564,1455.37 959.625,1455.65 959.681,1455.93C959.9,1455.72 960.122,1455.52 960.346,1455.33ZM832.989,819.696L1405.47,981.464C1406.18,981.662 1406.87,981.886 1407.55,982.133L1261.99,402.682L832.989,819.696ZM781.836,806.461C781.736,806.115 781.641,805.766 781.552,805.414L636.274,227.074L207.275,644.087L780.824,806.156C781.164,806.252 781.502,806.354 781.836,806.461ZM789.314,810.118C791.958,811.919 794.286,814.143 796.204,816.694L804.873,823.454C805.958,822.656 807.091,821.938 808.263,821.303C805.532,810.919 799.744,790.206 794.798,781.189L790.243,779.896L792.428,777.772C791.39,776.74 790.43,776.501 789.592,777.315C777.704,788.871 781.791,800.802 789.314,810.118ZM950.951,1483.08L521.926,1900.12L1096.46,2062.47L951.25,1484.4C951.14,1483.96 951.04,1483.52 950.951,1483.08ZM1455.11,998.383L2029.71,1160.75L1884.17,581.388L1456.46,997.145C1456.02,997.574 1455.57,997.987 1455.11,998.383ZM836.664,793.08L817.05,818.23L817.074,818.226L836.681,793.085L836.664,793.08ZM939.501,1433.78L793.961,854.394C793.72,854.645 793.474,854.893 793.223,855.137L364.967,1271.43L939.024,1433.64C939.184,1433.69 939.343,1433.73 939.501,1433.78ZM1416.16,1032.11L988.241,1448.07C987.87,1448.43 987.49,1448.79 987.103,1449.12C987.225,1449.16 987.347,1449.19 987.469,1449.22L1561.68,1611.48L1416.33,1032.83C1416.27,1032.59 1416.21,1032.35 1416.16,1032.11ZM1397.54,1009.53L822.162,846.945L967.911,1427.16L1397.54,1009.53Z"/>
</svg>